# xmcd
#
# Track frame offsets: 
#        182
#        5760
#        21435
#        47390
#        66882
#        82755
#        101695
#        115845
#        131780
#        151460
#        168187
#        190097
#        196425
#        202120
#        218335
#        237767
#        261212
#        276792
#        294755
#        312665
#
# Disc length: 4442 seconds
#
# Revision: 0
# Processed by: cddbd v1.5.1PL0 Copyright (c) Steve Scherf et al.
# Submitted via: ExactAudioCopy v0.95a5
#
DISCID=18115814
DTITLE=Eddy Mitchell - Retrouvons notre heros Eddy Mitchell a Bercy
DYEAR=1994
DGENRE=Blues
TTITLE0=Je fais le singe (intro)
TTITLE1=Comment t'es devenu riche
TTITLE2=y'a pas d'mal a s' faire du bien
TTITLE3=fauche
TTITLE4=stresse
TTITLE5=j'ai tous les plans
TTITLE6=vieille canaille
TTITLE7=que reste-il de nos amours
TTITLE8=oldie but goodie
TTITLE9=otis
TTITLE10=j' me sens mieux quand j' me sens mal
TTITLE11=je fais le singe (final)
TTITLE12=a toi ma poule (instrumental)
TTITLE13=il ne rentre pas ce soir
TTITLE14=je vais craquer bientot
TTITLE15=rio grande
TTITLE16=la peau d'une autre
TTITLE17=la derniere seance
TTITLE18=societe anonyme
TTITLE19=te perdre
EXTD=
EXTT0=
EXTT1=
EXTT2=
EXTT3=
EXTT4=
EXTT5=
EXTT6=
EXTT7=
EXTT8=
EXTT9=
EXTT10=
EXTT11=
EXTT12=
EXTT13=
EXTT14=
EXTT15=
EXTT16=
EXTT17=
EXTT18=
EXTT19=
PLAYORDER=
